<svg xmlns="http://www.w3.org/2000/svg" xmlns:xlink="http://www.w3.org/1999/xlink" width="360" zoomAndPan="magnify" viewBox="0 0 270 269.999989" height="360" preserveAspectRatio="xMidYMid meet" version="1.0"><path fill="#ffffff" d="M 35.957031 100.625 L 20.246094 100.625 C 19.378906 100.625 18.675781 99.921875 18.675781 99.054688 C 18.675781 98.1875 19.378906 97.480469 20.246094 97.480469 L 35.957031 97.480469 C 36.820312 97.480469 37.523438 98.1875 37.523438 99.054688 C 37.523438 99.921875 36.820312 100.625 35.957031 100.625 Z M 35.957031 94.789062 L 32.027344 94.789062 C 31.160156 94.789062 30.457031 94.085938 30.457031 93.21875 C 30.457031 92.351562 31.160156 91.648438 32.027344 91.648438 L 35.957031 91.648438 C 36.820312 91.648438 37.523438 92.351562 37.523438 93.21875 C 37.523438 94.085938 36.820312 94.789062 35.957031 94.789062 Z M 25.742188 118.128906 L 20.246094 118.128906 C 19.378906 118.128906 18.675781 117.425781 18.675781 116.558594 C 18.675781 115.691406 19.378906 114.988281 20.246094 114.988281 L 25.742188 114.988281 C 26.609375 114.988281 27.3125 115.691406 27.3125 116.558594 C 27.3125 117.425781 26.609375 118.128906 25.742188 118.128906 Z M 25.742188 118.128906 " fill-opacity="1" fill-rule="nonzero"/><path fill="#c8ede6" d="M 247.597656 155.105469 C 248.539062 153.167969 249.371094 151.132812 250.09375 149 C 258.355469 124.585938 245.859375 95.34375 219.554688 88.28125 C 216.710938 52.519531 191.609375 27.980469 163.257812 23.796875 C 130.8125 19.003906 101.085938 39.644531 91.195312 72.445312 C 79.277344 68.21875 67.660156 68.734375 56.710938 75.140625 C 51.746094 77.441406 47.203125 80.832031 43.125 85.296875 C 37.140625 91.851562 33.25 100.125 31.667969 108.847656 C 29.320312 109.21875 27.011719 109.585938 24.839844 110.367188 C 12.164062 114.917969 4.164062 124.289062 1.972656 138.402344 C 0.605469 147.191406 3.359375 155.957031 4.898438 159.496094 C 10.96875 173.492188 25.050781 181.425781 39.355469 179.328125 C 40.066406 179.222656 41.101562 179.542969 41.714844 180.058594 C 42.46875 202.429688 53.316406 222.214844 69.589844 233.515625 C 95.699219 251.652344 129.292969 246.066406 150.484375 221.195312 C 159.566406 230.496094 170.371094 235.015625 183.066406 233.375 C 195.691406 231.746094 205.492188 224.769531 212.644531 213.425781 C 215.949219 214.316406 219.078125 215.597656 222.316406 215.953125 C 235 217.34375 245.214844 212.234375 252.855469 200.871094 C 253.117188 200.484375 253.492188 200.183594 253.816406 199.839844 C 254.90625 197.335938 256 194.828125 257.089844 192.320312 C 257.578125 188.515625 258.4375 184.707031 258.480469 180.910156 C 258.601562 170.679688 254.425781 161.351562 247.597656 155.105469 Z M 247.597656 155.105469 " fill-opacity="1" fill-rule="nonzero"/><path fill="#fdfcef" d="M 205.046875 88.722656 C 205.046875 88.722656 168.363281 88.722656 168.140625 88.722656 C 159.667969 88.722656 152.804688 81.84375 152.804688 73.363281 C 152.804688 65.960938 158.03125 59.785156 164.992188 58.332031 C 164.910156 57.683594 164.855469 57.027344 164.855469 56.359375 C 164.855469 47.574219 171.96875 40.449219 180.742188 40.449219 C 185.921875 40.449219 190.511719 42.945312 193.410156 46.789062 C 194.148438 37.007812 202.875 29.464844 213.082031 30.714844 C 220.546875 31.628906 226.71875 37.40625 228.09375 44.808594 C 228.535156 47.183594 228.488281 49.484375 228.050781 51.648438 C 230.050781 49.488281 232.902344 48.132812 236.074219 48.132812 C 241.878906 48.132812 246.621094 52.660156 246.992188 58.378906 C 249.628906 57.792969 252.496094 57.832031 255.519531 58.96875 C 261.292969 61.140625 265.402344 66.582031 265.644531 72.753906 C 265.988281 81.515625 258.992188 88.730469 250.316406 88.730469 C 249.65625 88.730469 247.339844 88.730469 246.808594 88.730469 L 214.957031 88.730469 " fill-opacity="1" fill-rule="nonzero"/><path fill="#472b29" d="M 168.140625 90.292969 L 205.046875 90.292969 C 205.914062 90.292969 206.617188 89.589844 206.617188 88.722656 C 206.617188 87.855469 205.914062 87.152344 205.046875 87.152344 L 168.140625 87.152344 C 160.546875 87.152344 154.371094 80.964844 154.371094 73.363281 C 154.371094 66.871094 158.96875 61.191406 165.308594 59.867188 C 166.109375 59.699219 166.644531 58.945312 166.542969 58.132812 C 166.472656 57.546875 166.421875 56.957031 166.421875 56.359375 C 166.421875 48.449219 172.84375 42.019531 180.734375 42.019531 C 185.25 42.019531 189.410156 44.105469 192.152344 47.734375 C 192.542969 48.253906 193.210938 48.476562 193.847656 48.292969 C 194.46875 48.105469 194.917969 47.558594 194.964844 46.90625 C 195.292969 42.582031 197.410156 38.515625 200.769531 35.757812 C 204.167969 32.964844 208.476562 31.726562 212.882812 32.273438 C 219.679688 33.109375 225.296875 38.375 226.542969 45.09375 C 226.929688 47.191406 226.917969 49.289062 226.5 51.332031 C 226.363281 52.023438 226.695312 52.722656 227.324219 53.042969 C 227.949219 53.371094 228.710938 53.230469 229.191406 52.714844 C 230.992188 50.773438 233.433594 49.703125 236.0625 49.703125 C 240.984375 49.703125 245.09375 53.5625 245.414062 58.480469 C 245.445312 58.941406 245.671875 59.359375 246.039062 59.632812 C 246.40625 59.910156 246.878906 60.007812 247.320312 59.910156 C 249.957031 59.328125 252.457031 59.496094 254.953125 60.4375 C 260.191406 62.40625 263.847656 67.375 264.0625 72.808594 C 264.210938 76.601562 262.847656 80.191406 260.230469 82.917969 C 257.613281 85.648438 254.085938 87.15625 250.304688 87.15625 L 214.945312 87.15625 C 214.078125 87.15625 213.375 87.859375 213.375 88.726562 C 213.375 89.59375 214.078125 90.296875 214.945312 90.296875 L 250.308594 90.296875 C 254.949219 90.296875 259.277344 88.449219 262.496094 85.101562 C 265.714844 81.75 267.386719 77.34375 267.203125 72.6875 C 266.945312 66.007812 262.464844 59.90625 256.066406 57.5 C 253.554688 56.550781 250.960938 56.246094 248.320312 56.558594 C 247.136719 50.835938 242.050781 46.5625 236.066406 46.5625 C 233.921875 46.5625 231.820312 47.125 229.96875 48.164062 C 229.96875 46.949219 229.859375 45.738281 229.636719 44.523438 C 228.136719 36.472656 221.410156 30.152344 213.273438 29.15625 C 208.003906 28.511719 202.855469 29.992188 198.789062 33.328125 C 195.640625 35.914062 193.402344 39.457031 192.394531 43.359375 C 189.21875 40.480469 185.117188 38.878906 180.738281 38.878906 C 171.117188 38.878906 163.285156 46.722656 163.285156 56.359375 C 163.285156 56.617188 163.292969 56.878906 163.308594 57.136719 C 156.238281 59.25 151.234375 65.859375 151.234375 73.363281 C 151.230469 82.703125 158.816406 90.292969 168.140625 90.292969 Z M 168.140625 90.292969 " fill-opacity="1" fill-rule="nonzero"/><path fill="#fdfcef" d="M 213.9375 54.890625 C 219.609375 54.515625 224.496094 58.441406 224.84375 63.652344 C 224.886719 64.300781 224.859375 64.9375 224.765625 65.558594 C 225.859375 64.320312 227.480469 63.480469 229.339844 63.359375 C 232.746094 63.132812 235.683594 65.382812 236.113281 68.449219 C 236.730469 68.277344 237.375 68.164062 238.042969 68.121094 C 243.007812 67.792969 247.28125 71.226562 247.589844 75.789062 " fill-opacity="1" fill-rule="nonzero"/><path fill="#472b29" d="M 247.585938 76.574219 C 247.605469 76.574219 247.625 76.574219 247.640625 76.570312 C 248.074219 76.542969 248.398438 76.167969 248.371094 75.734375 C 248.035156 70.746094 243.386719 66.972656 237.992188 67.332031 C 237.5625 67.359375 237.132812 67.414062 236.707031 67.5 C 235.847656 64.457031 232.765625 62.332031 229.285156 62.574219 C 227.949219 62.660156 226.703125 63.074219 225.632812 63.777344 C 225.632812 63.714844 225.625 63.660156 225.621094 63.601562 C 225.246094 57.960938 220.015625 53.671875 213.878906 54.109375 C 213.449219 54.136719 213.121094 54.511719 213.148438 54.945312 C 213.175781 55.378906 213.539062 55.746094 213.984375 55.671875 C 219.164062 55.34375 223.734375 58.929688 224.054688 63.707031 C 224.09375 64.285156 224.070312 64.867188 223.984375 65.445312 C 223.929688 65.785156 224.113281 66.125 224.425781 66.273438 C 224.742188 66.421875 225.113281 66.34375 225.347656 66.082031 C 226.359375 64.933594 227.792969 64.246094 229.382812 64.144531 C 232.367188 64.035156 234.953125 65.890625 235.328125 68.554688 C 235.359375 68.777344 235.484375 68.980469 235.671875 69.105469 C 235.859375 69.226562 236.089844 69.265625 236.3125 69.203125 C 236.898438 69.042969 237.496094 68.945312 238.089844 68.898438 C 242.609375 68.609375 246.523438 71.714844 246.800781 75.839844 C 246.832031 76.253906 247.179688 76.574219 247.585938 76.574219 Z M 247.585938 76.574219 " fill-opacity="1" fill-rule="nonzero"/><path fill="#fdfcef" d="M 161.929688 60.132812 C 167.257812 57.613281 173.425781 59.394531 175.699219 64.113281 C 175.984375 64.695312 176.191406 65.300781 176.332031 65.914062 " fill-opacity="1" fill-rule="nonzero"/><path fill="#472b29" d="M 176.332031 66.699219 C 176.386719 66.699219 176.445312 66.695312 176.507812 66.683594 C 176.925781 66.585938 177.195312 66.164062 177.097656 65.738281 C 176.941406 65.058594 176.710938 64.394531 176.410156 63.769531 C 173.953125 58.675781 167.304688 56.734375 161.597656 59.417969 C 161.203125 59.605469 161.035156 60.070312 161.21875 60.464844 C 161.40625 60.859375 161.875 61.015625 162.265625 60.839844 C 167.203125 58.503906 172.914062 60.128906 174.996094 64.449219 C 175.25 64.96875 175.441406 65.519531 175.566406 66.089844 C 175.648438 66.457031 175.972656 66.699219 176.332031 66.699219 Z M 176.332031 66.699219 " fill-opacity="1" fill-rule="nonzero"/><path fill="#ffffff" d="M 127.308594 46.546875 L 95.835938 46.546875 C 94.972656 46.546875 94.269531 45.84375 94.269531 44.976562 C 94.269531 44.109375 94.972656 43.40625 95.835938 43.40625 L 127.308594 43.40625 C 128.175781 43.40625 128.878906 44.109375 128.878906 44.976562 C 128.878906 45.84375 128.179688 46.546875 127.308594 46.546875 Z M 137.917969 44.976562 C 137.917969 44.109375 137.214844 43.40625 136.347656 43.40625 L 131.8125 43.40625 C 130.945312 43.40625 130.242188 44.109375 130.242188 44.976562 C 130.242188 45.84375 130.945312 46.546875 131.8125 46.546875 L 136.347656 46.546875 C 137.21875 46.546875 137.917969 45.84375 137.917969 44.976562 Z M 150.640625 44.976562 C 150.640625 44.109375 149.9375 43.40625 149.074219 43.40625 L 141.085938 43.40625 C 140.21875 43.40625 139.515625 44.109375 139.515625 44.976562 C 139.515625 45.84375 140.21875 46.546875 141.085938 46.546875 L 149.074219 46.546875 C 149.941406 46.546875 150.640625 45.84375 150.640625 44.976562 Z M 150.640625 51.261719 C 150.640625 50.394531 149.9375 49.691406 149.074219 49.691406 L 118.898438 49.691406 C 118.035156 49.691406 117.332031 50.394531 117.332031 51.261719 C 117.332031 52.128906 118.035156 52.832031 118.898438 52.832031 L 149.074219 52.832031 C 149.941406 52.832031 150.640625 52.128906 150.640625 51.261719 Z M 115.035156 51.261719 C 115.035156 50.394531 114.332031 49.691406 113.464844 49.691406 L 111.644531 49.691406 C 110.78125 49.691406 110.078125 50.394531 110.078125 51.261719 C 110.078125 52.128906 110.78125 52.832031 111.644531 52.832031 L 113.464844 52.832031 C 114.332031 52.832031 115.035156 52.128906 115.035156 51.261719 Z M 107.578125 51.261719 C 107.578125 50.394531 106.875 49.691406 106.011719 49.691406 L 101.4375 49.691406 C 100.574219 49.691406 99.871094 50.394531 99.871094 51.261719 C 99.871094 52.128906 100.574219 52.832031 101.4375 52.832031 L 106.011719 52.832031 C 106.875 52.832031 107.578125 52.128906 107.578125 51.261719 Z M 136.242188 38.695312 C 136.242188 37.828125 135.539062 37.121094 134.671875 37.121094 L 118.898438 37.121094 C 118.035156 37.121094 117.332031 37.828125 117.332031 38.695312 C 117.332031 39.5625 118.035156 40.265625 118.898438 40.265625 L 134.671875 40.265625 C 135.542969 40.265625 136.242188 39.5625 136.242188 38.695312 Z M 136.242188 32.410156 C 136.242188 31.542969 135.539062 30.839844 134.671875 30.839844 L 130.730469 30.839844 C 129.863281 30.839844 129.160156 31.542969 129.160156 32.410156 C 129.160156 33.277344 129.863281 33.980469 130.730469 33.980469 L 134.671875 33.980469 C 135.542969 33.980469 136.242188 33.277344 136.242188 32.410156 Z M 125.984375 57.546875 C 125.984375 56.679688 125.28125 55.972656 124.417969 55.972656 L 118.898438 55.972656 C 118.035156 55.972656 117.332031 56.679688 117.332031 57.546875 C 117.332031 58.414062 118.035156 59.117188 118.898438 59.117188 L 124.417969 59.117188 C 125.285156 59.117188 125.984375 58.414062 125.984375 57.546875 Z M 246.058594 178.507812 L 214.585938 178.507812 C 213.71875 178.507812 213.019531 177.804688 213.019531 176.9375 C 213.019531 176.070312 213.71875 175.367188 214.585938 175.367188 L 246.0625 175.367188 C 246.925781 175.367188 247.628906 176.070312 247.628906 176.9375 C 247.628906 177.804688 246.925781 178.507812 246.058594 178.507812 Z M 256.667969 176.9375 C 256.667969 176.070312 255.964844 175.367188 255.097656 175.367188 L 250.5625 175.367188 C 249.695312 175.367188 248.992188 176.070312 248.992188 176.9375 C 248.992188 177.804688 249.695312 178.507812 250.5625 178.507812 L 255.097656 178.507812 C 255.96875 178.507812 256.667969 177.804688 256.667969 176.9375 Z M 269.390625 176.9375 C 269.390625 176.070312 268.6875 175.367188 267.820312 175.367188 L 259.832031 175.367188 C 258.96875 175.367188 258.265625 176.070312 258.265625 176.9375 C 258.265625 177.804688 258.96875 178.507812 259.832031 178.507812 L 267.820312 178.507812 C 268.6875 178.507812 269.390625 177.804688 269.390625 176.9375 Z M 263.035156 164.371094 C 263.035156 163.503906 262.332031 162.796875 261.464844 162.796875 L 231.292969 162.796875 C 230.425781 162.796875 229.722656 163.503906 229.722656 164.371094 C 229.722656 165.238281 230.425781 165.941406 231.292969 165.941406 L 261.464844 165.941406 C 262.332031 165.941406 263.035156 165.238281 263.035156 164.371094 Z M 227.425781 164.371094 C 227.425781 163.503906 226.722656 162.796875 225.855469 162.796875 L 224.039062 162.796875 C 223.171875 162.796875 222.46875 163.503906 222.46875 164.371094 C 222.46875 165.238281 223.171875 165.941406 224.039062 165.941406 L 225.855469 165.941406 C 226.726562 165.941406 227.425781 165.238281 227.425781 164.371094 Z M 219.96875 164.371094 C 219.96875 163.503906 219.265625 162.796875 218.398438 162.796875 L 213.832031 162.796875 C 212.964844 162.796875 212.261719 163.503906 212.261719 164.371094 C 212.261719 165.238281 212.964844 165.941406 213.832031 165.941406 L 218.398438 165.941406 C 219.269531 165.941406 219.96875 165.238281 219.96875 164.371094 Z M 254.992188 170.652344 C 254.992188 169.785156 254.289062 169.082031 253.421875 169.082031 L 237.648438 169.082031 C 236.78125 169.082031 236.082031 169.785156 236.082031 170.652344 C 236.082031 171.519531 236.78125 172.222656 237.648438 172.222656 L 253.421875 172.222656 C 254.289062 172.222656 254.992188 171.519531 254.992188 170.652344 Z M 254.992188 164.371094 C 254.992188 163.503906 254.289062 162.796875 253.421875 162.796875 L 249.480469 162.796875 C 248.613281 162.796875 247.910156 163.503906 247.910156 164.371094 C 247.910156 165.238281 248.613281 165.941406 249.480469 165.941406 L 253.421875 165.941406 C 254.289062 165.941406 254.992188 165.238281 254.992188 164.371094 Z M 234.648438 170.652344 C 234.648438 169.785156 233.945312 169.082031 233.082031 169.082031 L 227.5625 169.082031 C 226.699219 169.082031 225.996094 169.785156 225.996094 170.652344 C 225.996094 171.519531 226.699219 172.222656 227.5625 172.222656 L 233.082031 172.222656 C 233.949219 172.222656 234.648438 171.519531 234.648438 170.652344 Z M 234.648438 170.652344 " fill-opacity="1" fill-rule="nonzero"/><path fill="#fdfcef" d="M 68.566406 188.835938 C 74.476562 188.835938 79.601562 188.835938 79.675781 188.835938 C 86.296875 188.835938 91.664062 183.574219 91.664062 177.089844 C 91.664062 171.425781 87.578125 166.703125 82.140625 165.589844 C 82.203125 165.09375 82.246094 164.59375 82.246094 164.082031 C 82.246094 157.359375 76.6875 151.910156 69.832031 151.910156 C 65.785156 151.910156 62.199219 153.820312 59.933594 156.761719 C 59.351562 149.277344 52.53125 143.507812 44.558594 144.464844 C 38.722656 145.167969 33.898438 149.582031 32.824219 155.246094 C 32.480469 157.0625 32.515625 158.824219 32.859375 160.476562 C 31.296875 158.828125 29.070312 157.789062 26.589844 157.789062 C 22.050781 157.789062 18.347656 161.25 18.054688 165.625 C 15.992188 165.175781 13.753906 165.207031 11.394531 166.074219 C 6.882812 167.730469 3.667969 171.894531 3.480469 176.617188 C 3.214844 183.316406 8.679688 188.835938 15.460938 188.835938 C 15.976562 188.835938 17.785156 188.835938 18.203125 188.835938 L 43.097656 188.835938 M 48.242188 188.835938 L 49.375 188.835938 " fill-opacity="1" fill-rule="nonzero"/><path fill="#472b29" d="M 79.675781 190.410156 L 68.566406 190.410156 C 67.699219 190.410156 67 189.707031 67 188.839844 C 67 187.972656 67.699219 187.269531 68.566406 187.269531 L 79.675781 187.269531 C 85.421875 187.269531 90.09375 182.703125 90.09375 177.089844 C 90.09375 172.304688 86.617188 168.113281 81.824219 167.132812 C 81.019531 166.964844 80.476562 166.207031 80.582031 165.390625 C 80.636719 164.960938 80.675781 164.527344 80.675781 164.082031 C 80.675781 158.238281 75.808594 153.484375 69.828125 153.484375 C 66.402344 153.484375 63.246094 155.027344 61.167969 157.722656 C 60.773438 158.238281 60.097656 158.445312 59.476562 158.269531 C 58.855469 158.078125 58.414062 157.53125 58.363281 156.886719 C 58.113281 153.679688 56.589844 150.777344 54.066406 148.703125 C 51.464844 146.566406 48.152344 145.628906 44.738281 146.023438 C 39.574219 146.644531 35.304688 150.554688 34.363281 155.535156 C 34.066406 157.089844 34.078125 158.644531 34.390625 160.160156 C 34.53125 160.847656 34.203125 161.546875 33.582031 161.871094 C 32.960938 162.191406 32.199219 162.070312 31.71875 161.558594 C 30.375 160.140625 28.550781 159.359375 26.585938 159.359375 C 22.917969 159.359375 19.855469 162.15625 19.617188 165.726562 C 19.585938 166.1875 19.359375 166.601562 18.996094 166.875 C 18.632812 167.148438 18.167969 167.253906 17.722656 167.15625 C 15.71875 166.722656 13.824219 166.847656 11.929688 167.550781 C 7.96875 169.003906 5.203125 172.671875 5.042969 176.675781 C 4.933594 179.429688 5.929688 182.046875 7.851562 184.046875 C 9.84375 186.121094 12.546875 187.265625 15.453125 187.265625 L 43.089844 187.265625 C 43.953125 187.265625 44.65625 187.96875 44.65625 188.835938 C 44.65625 189.703125 43.953125 190.40625 43.089844 190.40625 L 15.453125 190.40625 C 11.734375 190.40625 8.140625 188.882812 5.589844 186.222656 C 3.070312 183.597656 1.765625 180.164062 1.90625 176.554688 C 2.117188 171.292969 5.710938 166.488281 10.847656 164.597656 C 12.761719 163.890625 14.738281 163.640625 16.746094 163.828125 C 17.824219 159.441406 21.859375 156.214844 26.582031 156.214844 C 28.128906 156.214844 29.648438 156.566406 31.019531 157.226562 C 31.046875 156.46875 31.136719 155.707031 31.28125 154.945312 C 32.476562 148.632812 37.859375 143.679688 44.367188 142.902344 C 48.648438 142.375 52.789062 143.585938 56.058594 146.265625 C 58.402344 148.191406 60.066406 150.691406 60.90625 153.5 C 63.390625 151.460938 66.511719 150.335938 69.824219 150.335938 C 77.539062 150.335938 83.808594 156.5 83.808594 164.074219 C 83.808594 164.179688 83.808594 164.289062 83.808594 164.398438 C 89.34375 166.140625 93.230469 171.273438 93.230469 177.085938 C 93.234375 184.433594 87.152344 190.410156 79.675781 190.410156 Z M 49.375 190.410156 L 48.242188 190.410156 C 47.378906 190.410156 46.675781 189.707031 46.675781 188.839844 C 46.675781 187.972656 47.378906 187.269531 48.242188 187.269531 L 49.375 187.269531 C 50.238281 187.269531 50.941406 187.972656 50.941406 188.839844 C 50.941406 189.707031 50.238281 190.410156 49.375 190.410156 Z M 49.375 190.410156 " fill-opacity="1" fill-rule="nonzero"/><path fill="#472b29" d="M 74.320312 172.175781 C 74.261719 172.175781 74.207031 172.167969 74.144531 172.15625 C 73.722656 172.0625 73.457031 171.640625 73.554688 171.214844 C 73.667969 170.699219 73.847656 170.195312 74.085938 169.710938 C 75.980469 165.863281 81.214844 164.441406 85.765625 166.546875 C 86.15625 166.730469 86.328125 167.195312 86.148438 167.585938 C 85.964844 167.984375 85.5 168.148438 85.105469 167.96875 C 81.335938 166.222656 77.019531 167.316406 75.496094 170.402344 C 75.3125 170.773438 75.175781 171.164062 75.085938 171.554688 C 75.003906 171.925781 74.679688 172.175781 74.320312 172.175781 Z M 58.128906 190.410156 L 54.65625 190.410156 C 53.792969 190.410156 53.089844 189.707031 53.089844 188.839844 C 53.089844 187.972656 53.792969 187.269531 54.65625 187.269531 L 58.128906 187.269531 C 58.996094 187.269531 59.699219 187.972656 59.699219 188.839844 C 59.699219 189.707031 59 190.410156 58.128906 190.410156 Z M 58.128906 190.410156 " fill-opacity="1" fill-rule="nonzero"/><path fill="#67ba8c" d="M 84.398438 154.316406 C 81.765625 154.316406 79.621094 152.167969 79.621094 149.535156 L 79.621094 75.527344 C 79.621094 72.886719 81.765625 70.746094 84.398438 70.746094 L 189.683594 70.746094 C 192.316406 70.746094 194.460938 72.890625 194.460938 75.527344 L 194.460938 149.535156 C 194.460938 152.171875 192.316406 154.316406 189.683594 154.316406 Z M 84.398438 154.316406 " fill-opacity="1" fill-rule="nonzero"/><path fill="#472b29" d="M 189.683594 72.941406 C 191.082031 72.941406 192.265625 74.125 192.265625 75.527344 L 192.265625 149.535156 C 192.265625 150.933594 191.082031 152.121094 189.683594 152.121094 L 84.398438 152.121094 C 82.996094 152.121094 81.816406 150.933594 81.816406 149.535156 L 81.816406 75.527344 C 81.816406 74.125 82.996094 72.941406 84.398438 72.941406 L 189.683594 72.941406 M 189.683594 68.542969 L 84.398438 68.542969 C 80.558594 68.542969 77.421875 71.683594 77.421875 75.527344 L 77.421875 149.535156 C 77.421875 153.371094 80.558594 156.515625 84.398438 156.515625 L 189.683594 156.515625 C 193.519531 156.515625 196.65625 153.371094 196.65625 149.53125 L 196.65625 75.527344 C 196.65625 71.683594 193.519531 68.542969 189.683594 68.542969 Z M 189.683594 68.542969 " fill-opacity="1" fill-rule="nonzero"/><path fill="#ecad6f" d="M 80.558594 160.597656 C 76.582031 160.597656 73.34375 157.359375 73.34375 153.371094 C 73.34375 149.386719 76.582031 146.148438 80.558594 146.148438 L 193.519531 146.148438 C 197.5 146.148438 200.738281 149.386719 200.738281 153.371094 C 200.738281 157.359375 197.5 160.597656 193.519531 160.597656 Z M 80.558594 160.597656 " fill-opacity="1" fill-rule="nonzero"/><path fill="#472b29" d="M 193.519531 148.347656 C 196.285156 148.347656 198.539062 150.601562 198.539062 153.371094 C 198.539062 156.144531 196.285156 158.398438 193.519531 158.398438 L 80.558594 158.398438 C 77.792969 158.398438 75.539062 156.144531 75.539062 153.371094 C 75.539062 150.601562 77.792969 148.347656 80.558594 148.347656 L 193.519531 148.347656 M 193.519531 143.949219 L 80.558594 143.949219 C 75.382812 143.949219 71.144531 148.1875 71.144531 153.371094 C 71.144531 158.558594 75.382812 162.796875 80.558594 162.796875 L 193.519531 162.796875 C 198.695312 162.796875 202.933594 158.558594 202.933594 153.371094 C 202.933594 148.1875 198.695312 143.949219 193.519531 143.949219 Z M 193.519531 143.949219 " fill-opacity="1" fill-rule="nonzero"/><path fill="#fddbbc" d="M 82.128906 80.167969 C 81.34375 80.167969 80.570312 80.242188 79.800781 80.394531 C 79.035156 80.550781 78.289062 80.777344 77.566406 81.074219 C 76.84375 81.375 76.15625 81.742188 75.503906 82.179688 C 74.851562 82.613281 74.25 83.109375 73.699219 83.664062 C 73.144531 84.21875 72.648438 84.820312 72.214844 85.472656 C 71.78125 86.125 71.414062 86.8125 71.113281 87.539062 C 70.8125 88.261719 70.585938 89.007812 70.433594 89.777344 C 70.28125 90.546875 70.203125 91.320312 70.203125 92.105469 C 70.203125 92.890625 70.28125 93.667969 70.433594 94.433594 C 70.585938 95.203125 70.8125 95.949219 71.113281 96.675781 C 71.414062 97.398438 71.78125 98.085938 72.214844 98.738281 C 72.648438 99.390625 73.144531 99.992188 73.699219 100.546875 C 74.25 101.101562 74.851562 101.597656 75.503906 102.03125 C 76.15625 102.46875 76.84375 102.835938 77.566406 103.136719 C 78.289062 103.4375 79.035156 103.664062 79.800781 103.816406 C 80.570312 103.96875 81.34375 104.046875 82.128906 104.046875 C 82.910156 104.046875 83.6875 103.96875 84.453125 103.816406 C 85.222656 103.664062 85.96875 103.4375 86.691406 103.136719 C 87.414062 102.835938 88.101562 102.46875 88.753906 102.03125 C 89.402344 101.597656 90.007812 101.101562 90.558594 100.546875 C 91.113281 99.992188 91.609375 99.390625 92.042969 98.738281 C 92.476562 98.085938 92.84375 97.398438 93.144531 96.675781 C 93.445312 95.949219 93.671875 95.203125 93.824219 94.433594 C 93.976562 93.667969 94.050781 92.890625 94.050781 92.105469 C 94.050781 91.320312 93.976562 90.546875 93.824219 89.777344 C 93.671875 89.007812 93.445312 88.261719 93.144531 87.539062 C 92.84375 86.8125 92.476562 86.125 92.042969 85.472656 C 91.609375 84.820312 91.113281 84.21875 90.558594 83.664062 C 90.007812 83.109375 89.402344 82.613281 88.753906 82.179688 C 88.101562 81.742188 87.414062 81.375 86.691406 81.074219 C 85.96875 80.777344 85.222656 80.550781 84.453125 80.394531 C 83.6875 80.242188 82.910156 80.167969 82.128906 80.167969 Z M 82.128906 80.167969 " fill-opacity="1" fill-rule="nonzero"/><path fill="#472b29" d="M 82.128906 82.367188 C 87.492188 82.367188 91.855469 86.738281 91.855469 92.105469 C 91.855469 97.476562 87.492188 101.847656 82.128906 101.847656 C 76.765625 101.847656 72.402344 97.476562 72.402344 92.105469 C 72.402344 86.738281 76.765625 82.367188 82.128906 82.367188 M 82.128906 77.96875 C 74.332031 77.96875 68.007812 84.296875 68.007812 92.105469 C 68.007812 99.914062 74.332031 106.246094 82.128906 106.246094 C 89.925781 106.246094 96.25 99.914062 96.25 92.105469 C 96.25 84.296875 89.925781 77.96875 82.128906 77.96875 Z M 82.128906 77.96875 " fill-opacity="1" fill-rule="nonzero"/><path fill="#fddbbc" d="M 124.488281 171.28125 C 123.808594 171.28125 123.136719 171.347656 122.46875 171.480469 C 121.800781 171.613281 121.152344 171.808594 120.527344 172.070312 C 119.898438 172.332031 119.300781 172.652344 118.734375 173.027344 C 118.171875 173.40625 117.648438 173.835938 117.167969 174.320312 C 116.6875 174.800781 116.257812 175.324219 115.878906 175.890625 C 115.5 176.457031 115.183594 177.054688 114.921875 177.683594 C 114.660156 178.3125 114.464844 178.960938 114.332031 179.628906 C 114.199219 180.292969 114.132812 180.96875 114.132812 181.648438 C 114.132812 182.332031 114.199219 183.003906 114.332031 183.671875 C 114.464844 184.339844 114.660156 184.988281 114.921875 185.617188 C 115.183594 186.246094 115.5 186.84375 115.878906 187.410156 C 116.257812 187.976562 116.6875 188.5 117.167969 188.980469 C 117.648438 189.460938 118.171875 189.894531 118.734375 190.269531 C 119.300781 190.648438 119.898438 190.96875 120.527344 191.230469 C 121.152344 191.488281 121.800781 191.6875 122.46875 191.820312 C 123.136719 191.953125 123.808594 192.019531 124.488281 192.019531 C 125.167969 192.019531 125.839844 191.953125 126.507812 191.820312 C 127.175781 191.6875 127.824219 191.488281 128.449219 191.230469 C 129.078125 190.96875 129.675781 190.648438 130.242188 190.269531 C 130.804688 189.894531 131.328125 189.460938 131.808594 188.980469 C 132.292969 188.5 132.71875 187.976562 133.097656 187.410156 C 133.476562 186.84375 133.792969 186.246094 134.054688 185.617188 C 134.316406 184.988281 134.511719 184.339844 134.644531 183.671875 C 134.777344 183.003906 134.84375 182.332031 134.84375 181.648438 C 134.84375 180.96875 134.777344 180.292969 134.644531 179.628906 C 134.511719 178.960938 134.316406 178.3125 134.054688 177.683594 C 133.792969 177.054688 133.476562 176.457031 133.097656 175.890625 C 132.71875 175.324219 132.292969 174.800781 131.808594 174.320312 C 131.328125 173.835938 130.804688 173.40625 130.242188 173.027344 C 129.675781 172.652344 129.078125 172.332031 128.449219 172.070312 C 127.824219 171.808594 127.175781 171.613281 126.507812 171.480469 C 125.839844 171.347656 125.167969 171.28125 124.488281 171.28125 Z M 124.488281 171.28125 " fill-opacity="1" fill-rule="nonzero"/><path fill="#472b29" d="M 124.488281 173.480469 C 128.988281 173.480469 132.648438 177.148438 132.648438 181.648438 C 132.648438 186.152344 128.988281 189.820312 124.488281 189.820312 C 119.988281 189.820312 116.332031 186.152344 116.332031 181.648438 C 116.332031 177.148438 119.988281 173.480469 124.488281 173.480469 M 124.488281 169.082031 C 117.558594 169.082031 111.9375 174.710938 111.9375 181.648438 C 111.9375 188.589844 117.558594 194.21875 124.488281 194.21875 C 131.417969 194.21875 137.039062 188.589844 137.039062 181.648438 C 137.039062 174.710938 131.417969 169.082031 124.488281 169.082031 Z M 124.488281 169.082031 " fill-opacity="1" fill-rule="nonzero"/><path fill="#48bed8" d="M 91.5625 209.296875 C 88.378906 209.296875 85.746094 206.710938 85.691406 203.523438 L 84.621094 163.835938 C 84.589844 162.640625 83.601562 161.617188 82.410156 161.617188 C 81.800781 161.617188 81.21875 161.871094 80.800781 162.316406 C 80.386719 162.765625 80.164062 163.429688 80.207031 164.039062 L 78.855469 203.492188 C 78.78125 206.703125 76.121094 209.300781 72.9375 209.300781 C 71.429688 209.300781 70.015625 208.710938 68.96875 207.636719 C 67.921875 206.558594 67.363281 205.132812 67.398438 203.621094 L 68.347656 163.832031 C 68.363281 163.183594 68.089844 162.5625 67.605469 162.132812 C 67.203125 161.773438 66.683594 161.578125 66.152344 161.578125 C 66.042969 161.578125 65.9375 161.589844 65.832031 161.605469 C 65.523438 161.652344 65.277344 161.691406 65.015625 161.691406 C 61.859375 161.691406 59.289062 159.121094 59.289062 155.957031 L 59.289062 127.394531 C 59.292969 127.351562 59.339844 127.011719 59.34375 126.972656 C 59.570312 121.265625 65.546875 108.960938 81.855469 108.960938 C 81.855469 108.960938 82.523438 108.980469 82.582031 108.984375 C 91.65625 109.082031 96.902344 110.691406 99.710938 112.023438 C 100.398438 112.296875 100.8125 112.511719 101.160156 112.769531 L 114.8125 122.816406 C 115.1875 123.09375 115.644531 123.246094 116.113281 123.246094 L 128.410156 123.246094 C 131.566406 123.246094 134.136719 125.816406 134.136719 128.980469 C 134.136719 132.144531 131.566406 134.714844 128.410156 134.714844 L 114.144531 134.714844 C 113.523438 134.714844 112.894531 134.59375 112.214844 134.347656 C 112.117188 134.3125 112.015625 134.28125 111.910156 134.261719 C 111.082031 134.089844 110.339844 133.765625 109.695312 133.289062 L 99.597656 125.855469 C 99.210938 125.570312 98.753906 125.425781 98.292969 125.425781 C 97.957031 125.425781 97.617188 125.503906 97.304688 125.660156 C 96.5625 126.035156 96.097656 126.796875 96.097656 127.625 L 96.097656 144.847656 C 96.097656 146.003906 96.164062 149.050781 96.207031 151.101562 L 97.148438 203.605469 C 97.175781 205.121094 96.609375 206.550781 95.546875 207.628906 C 94.488281 208.703125 93.078125 209.296875 91.5625 209.296875 Z M 91.5625 209.296875 " fill-opacity="1" fill-rule="nonzero"/><path fill="#472b29" d="M 81.921875 111.160156 C 81.921875 111.160156 81.925781 111.160156 81.925781 111.160156 L 82.394531 111.167969 C 82.480469 111.175781 82.558594 111.175781 82.628906 111.175781 C 91.242188 111.269531 96.164062 112.765625 98.773438 114 C 98.867188 114.046875 98.960938 114.085938 99.058594 114.125 C 99.414062 114.261719 99.679688 114.398438 99.859375 114.53125 L 113.511719 124.582031 C 114.265625 125.140625 115.179688 125.4375 116.113281 125.4375 L 128.410156 125.4375 C 130.359375 125.4375 131.945312 127.023438 131.945312 128.972656 C 131.945312 130.921875 130.359375 132.511719 128.410156 132.511719 L 114.144531 132.511719 C 113.789062 132.511719 113.40625 132.433594 112.964844 132.273438 C 112.765625 132.203125 112.5625 132.144531 112.355469 132.097656 C 111.835938 131.992188 111.382812 131.792969 111 131.511719 L 100.898438 124.078125 C 100.128906 123.511719 99.21875 123.222656 98.296875 123.222656 C 97.621094 123.222656 96.941406 123.378906 96.3125 123.699219 C 94.835938 124.445312 93.90625 125.964844 93.90625 127.621094 L 93.90625 144.847656 C 93.90625 146.027344 93.96875 149.183594 94.015625 151.253906 L 94.046875 152.859375 L 94.953125 203.644531 C 94.96875 204.5625 94.625 205.429688 93.984375 206.085938 C 93.34375 206.742188 92.484375 207.101562 91.5625 207.101562 C 89.601562 207.101562 87.921875 205.445312 87.886719 203.449219 L 86.820312 163.898438 C 86.820312 161.46875 84.835938 159.421875 82.410156 159.421875 C 81.199219 159.421875 80.039062 159.921875 79.210938 160.804688 C 78.472656 161.585938 78.046875 162.664062 78.007812 163.742188 L 76.660156 203.460938 C 76.613281 205.433594 74.910156 207.101562 72.9375 207.101562 C 72.023438 207.101562 71.171875 206.746094 70.539062 206.097656 C 69.910156 205.449219 69.570312 204.585938 69.59375 203.671875 L 70.539062 163.882812 C 70.570312 162.585938 69.980469 161.351562 69.007812 160.488281 C 68.203125 159.773438 67.132812 159.394531 66.058594 159.394531 C 65.84375 159.394531 65.625 159.410156 65.410156 159.441406 C 65.277344 159.457031 65.140625 159.488281 65.019531 159.492188 C 63.070312 159.492188 61.484375 157.90625 61.484375 155.957031 L 61.484375 127.570312 C 61.503906 127.425781 61.523438 127.28125 61.53125 127.128906 C 61.535156 127.074219 61.539062 127.023438 61.542969 126.96875 C 61.667969 123.828125 65.671875 111.160156 81.921875 111.160156 M 82.449219 106.757812 C 82.40625 106.757812 82.363281 106.769531 82.320312 106.769531 C 82.15625 106.769531 82.019531 106.757812 81.851562 106.757812 C 63.539062 106.757812 57.382812 120.867188 57.148438 126.785156 C 57.132812 126.988281 57.089844 127.183594 57.089844 127.386719 L 57.089844 155.953125 C 57.089844 160.316406 60.652344 163.886719 65.015625 163.886719 C 65.402344 163.886719 65.777344 163.824219 66.152344 163.769531 L 65.203125 203.558594 C 65.101562 207.921875 68.578125 211.492188 72.9375 211.492188 C 77.296875 211.492188 80.949219 207.921875 81.050781 203.558594 L 82.398438 163.882812 C 82.394531 163.839844 82.40625 163.808594 82.410156 163.808594 C 82.421875 163.808594 82.425781 163.835938 82.425781 163.890625 L 83.492188 203.558594 C 83.570312 207.921875 87.203125 211.492188 91.5625 211.492188 C 95.917969 211.492188 99.421875 207.921875 99.34375 203.558594 L 98.433594 152.777344 C 98.414062 151.542969 98.292969 146.417969 98.292969 144.839844 L 98.292969 127.617188 L 108.394531 135.050781 C 109.335938 135.742188 110.382812 136.175781 111.460938 136.402344 C 112.300781 136.707031 113.199219 136.902344 114.144531 136.902344 L 128.40625 136.902344 C 132.765625 136.902344 136.332031 133.332031 136.332031 128.964844 C 136.332031 124.601562 132.769531 121.035156 128.40625 121.035156 L 116.109375 121.035156 L 102.460938 110.988281 C 101.894531 110.570312 101.28125 110.273438 100.652344 110.027344 C 97.582031 108.574219 92.007812 106.878906 82.671875 106.777344 C 82.597656 106.777344 82.523438 106.757812 82.449219 106.757812 Z M 82.449219 106.757812 " fill-opacity="1" fill-rule="nonzero"/><path fill="#472b29" d="M 88.402344 125.097656 L 78.992188 125.097656 C 78.125 125.097656 77.421875 124.390625 77.421875 123.523438 C 77.421875 122.65625 78.125 121.953125 78.992188 121.953125 L 88.402344 121.953125 C 89.269531 121.953125 89.972656 122.65625 89.972656 123.523438 C 89.972656 124.390625 89.269531 125.097656 88.402344 125.097656 Z M 88.402344 125.097656 " fill-opacity="1" fill-rule="nonzero"/><path fill="#472b29" d="M 69.578125 162.796875 C 68.710938 162.796875 68.007812 162.09375 68.007812 161.226562 L 68.007812 126.667969 C 68.007812 125.800781 68.710938 125.097656 69.578125 125.097656 C 70.445312 125.097656 71.144531 125.800781 71.144531 126.667969 L 71.144531 161.226562 C 71.144531 162.09375 70.445312 162.796875 69.578125 162.796875 Z M 69.578125 162.796875 " fill-opacity="1" fill-rule="nonzero"/><path fill="#472b29" d="M 185.675781 112.527344 C 184.808594 112.527344 184.105469 111.824219 184.105469 110.957031 L 184.105469 82.679688 L 172.535156 82.679688 C 171.667969 82.679688 170.964844 81.976562 170.964844 81.109375 C 170.964844 80.242188 171.667969 79.539062 172.535156 79.539062 L 185.675781 79.539062 C 186.542969 79.539062 187.242188 80.242188 187.242188 81.109375 L 187.242188 110.957031 C 187.242188 111.824219 186.542969 112.527344 185.675781 112.527344 Z M 185.675781 112.527344 " fill-opacity="1" fill-rule="nonzero"/><path fill="#472b29" d="M 185.675781 134.523438 C 184.808594 134.523438 184.105469 133.816406 184.105469 132.949219 L 184.105469 118.8125 C 184.105469 117.945312 184.808594 117.242188 185.675781 117.242188 C 186.542969 117.242188 187.242188 117.945312 187.242188 118.8125 L 187.242188 132.949219 C 187.242188 133.816406 186.542969 134.523438 185.675781 134.523438 Z M 185.675781 134.523438 " fill-opacity="1" fill-rule="nonzero"/><path fill="#472b29" d="M 132.992188 127.671875 C 132.550781 127.671875 132.105469 127.484375 131.800781 127.121094 C 131.238281 126.460938 131.316406 125.46875 131.976562 124.902344 L 163.382812 98.109375 C 164.039062 97.546875 165.035156 97.625 165.597656 98.289062 C 166.15625 98.949219 166.078125 99.9375 165.421875 100.503906 L 134.011719 127.296875 C 133.714844 127.550781 133.351562 127.671875 132.992188 127.671875 Z M 132.992188 127.671875 " fill-opacity="1" fill-rule="nonzero"/><path fill="#472b29" d="M 162.140625 82.679688 L 99.386719 82.679688 C 98.519531 82.679688 97.816406 81.976562 97.816406 81.109375 C 97.816406 80.242188 98.519531 79.539062 99.386719 79.539062 L 162.140625 79.539062 C 163.007812 79.539062 163.710938 80.242188 163.710938 81.109375 C 163.710938 81.976562 163.007812 82.679688 162.140625 82.679688 Z M 162.140625 82.679688 " fill-opacity="1" fill-rule="nonzero"/><path fill="#6673a7" d="M 110.996094 207.726562 L 110.996094 206.785156 C 110.996094 199.335938 117.046875 193.273438 124.488281 193.273438 C 131.929688 193.273438 137.980469 199.335938 137.980469 206.785156 L 137.980469 207.726562 Z M 110.996094 207.726562 " fill-opacity="1" fill-rule="nonzero"/><path fill="#472b29" d="M 124.488281 195.472656 C 130.292969 195.472656 135.085938 199.882812 135.714844 205.527344 L 113.261719 205.527344 C 113.890625 199.878906 118.683594 195.472656 124.488281 195.472656 M 124.488281 191.074219 C 115.824219 191.074219 108.800781 198.109375 108.800781 206.785156 L 108.800781 209.925781 L 140.175781 209.925781 L 140.175781 206.785156 C 140.175781 198.109375 133.152344 191.074219 124.488281 191.074219 Z M 124.488281 191.074219 " fill-opacity="1" fill-rule="nonzero"/><path fill="#fddbbc" d="M 155.867188 171.28125 C 155.1875 171.28125 154.511719 171.347656 153.847656 171.480469 C 153.179688 171.613281 152.53125 171.808594 151.902344 172.070312 C 151.277344 172.332031 150.679688 172.652344 150.113281 173.027344 C 149.546875 173.40625 149.023438 173.835938 148.542969 174.320312 C 148.0625 174.800781 147.632812 175.324219 147.257812 175.890625 C 146.878906 176.457031 146.558594 177.054688 146.300781 177.683594 C 146.039062 178.3125 145.84375 178.960938 145.710938 179.628906 C 145.578125 180.292969 145.511719 180.96875 145.511719 181.648438 C 145.511719 182.332031 145.578125 183.003906 145.710938 183.671875 C 145.84375 184.339844 146.039062 184.988281 146.300781 185.617188 C 146.558594 186.246094 146.878906 186.84375 147.257812 187.410156 C 147.632812 187.976562 148.0625 188.5 148.542969 188.980469 C 149.023438 189.460938 149.546875 189.894531 150.113281 190.269531 C 150.679688 190.648438 151.277344 190.96875 151.902344 191.230469 C 152.53125 191.488281 153.179688 191.6875 153.847656 191.820312 C 154.511719 191.953125 155.1875 192.019531 155.867188 192.019531 C 156.546875 192.019531 157.21875 191.953125 157.886719 191.820312 C 158.554688 191.6875 159.199219 191.488281 159.828125 191.230469 C 160.457031 190.96875 161.054688 190.648438 161.617188 190.269531 C 162.183594 189.894531 162.707031 189.460938 163.1875 188.980469 C 163.667969 188.5 164.097656 187.976562 164.476562 187.410156 C 164.851562 186.84375 165.171875 186.246094 165.433594 185.617188 C 165.691406 184.988281 165.890625 184.339844 166.023438 183.671875 C 166.15625 183.003906 166.222656 182.332031 166.222656 181.648438 C 166.222656 180.96875 166.15625 180.292969 166.023438 179.628906 C 165.890625 178.960938 165.691406 178.3125 165.433594 177.683594 C 165.171875 177.054688 164.851562 176.457031 164.476562 175.890625 C 164.097656 175.324219 163.667969 174.800781 163.1875 174.320312 C 162.707031 173.835938 162.183594 173.40625 161.617188 173.027344 C 161.054688 172.652344 160.457031 172.332031 159.828125 172.070312 C 159.199219 171.808594 158.554688 171.613281 157.886719 171.480469 C 157.21875 171.347656 156.546875 171.28125 155.867188 171.28125 Z M 155.867188 171.28125 " fill-opacity="1" fill-rule="nonzero"/><path fill="#472b29" d="M 155.867188 173.480469 C 160.367188 173.480469 164.023438 177.148438 164.023438 181.648438 C 164.023438 186.152344 160.367188 189.820312 155.867188 189.820312 C 151.367188 189.820312 147.707031 186.152344 147.707031 181.648438 C 147.707031 177.148438 151.367188 173.480469 155.867188 173.480469 M 155.867188 169.082031 C 148.933594 169.082031 143.316406 174.710938 143.316406 181.648438 C 143.316406 188.589844 148.933594 194.21875 155.867188 194.21875 C 162.796875 194.21875 168.417969 188.589844 168.417969 181.648438 C 168.417969 174.710938 162.796875 169.082031 155.867188 169.082031 Z M 155.867188 169.082031 " fill-opacity="1" fill-rule="nonzero"/><path fill="#6673a7" d="M 142.375 207.726562 L 142.375 206.785156 C 142.375 199.335938 148.425781 193.273438 155.867188 193.273438 C 163.304688 193.273438 169.359375 199.335938 169.359375 206.785156 L 169.359375 207.726562 Z M 142.375 207.726562 " fill-opacity="1" fill-rule="nonzero"/><path fill="#472b29" d="M 155.867188 195.472656 C 161.671875 195.472656 166.464844 199.882812 167.09375 205.527344 L 144.640625 205.527344 C 145.265625 199.878906 150.0625 195.472656 155.867188 195.472656 M 155.867188 191.074219 C 147.203125 191.074219 140.175781 198.109375 140.175781 206.785156 L 140.175781 209.925781 L 171.554688 209.925781 L 171.554688 206.785156 C 171.554688 198.109375 164.53125 191.074219 155.867188 191.074219 Z M 155.867188 191.074219 " fill-opacity="1" fill-rule="nonzero"/><path fill="#fddbbc" d="M 187.242188 171.28125 C 186.5625 171.28125 185.890625 171.347656 185.222656 171.480469 C 184.558594 171.613281 183.910156 171.808594 183.28125 172.070312 C 182.652344 172.332031 182.054688 172.652344 181.492188 173.027344 C 180.925781 173.40625 180.402344 173.835938 179.921875 174.320312 C 179.441406 174.800781 179.011719 175.324219 178.632812 175.890625 C 178.257812 176.457031 177.9375 177.054688 177.675781 177.683594 C 177.417969 178.3125 177.222656 178.960938 177.089844 179.628906 C 176.957031 180.292969 176.890625 180.96875 176.890625 181.648438 C 176.890625 182.332031 176.957031 183.003906 177.089844 183.671875 C 177.222656 184.339844 177.417969 184.988281 177.675781 185.617188 C 177.9375 186.246094 178.257812 186.84375 178.632812 187.410156 C 179.011719 187.976562 179.441406 188.5 179.921875 188.980469 C 180.402344 189.460938 180.925781 189.894531 181.492188 190.269531 C 182.054688 190.648438 182.652344 190.96875 183.28125 191.230469 C 183.910156 191.488281 184.558594 191.6875 185.222656 191.820312 C 185.890625 191.953125 186.5625 192.019531 187.242188 192.019531 C 187.921875 192.019531 188.597656 191.953125 189.265625 191.820312 C 189.929688 191.6875 190.578125 191.488281 191.207031 191.230469 C 191.835938 190.96875 192.429688 190.648438 192.996094 190.269531 C 193.5625 189.894531 194.085938 189.460938 194.566406 188.980469 C 195.046875 188.5 195.476562 187.976562 195.851562 187.410156 C 196.230469 186.84375 196.550781 186.246094 196.808594 185.617188 C 197.070312 184.988281 197.265625 184.339844 197.398438 183.671875 C 197.53125 183.003906 197.597656 182.332031 197.597656 181.648438 C 197.597656 180.96875 197.53125 180.292969 197.398438 179.628906 C 197.265625 178.960938 197.070312 178.3125 196.808594 177.683594 C 196.550781 177.054688 196.230469 176.457031 195.851562 175.890625 C 195.476562 175.324219 195.046875 174.800781 194.566406 174.320312 C 194.085938 173.835938 193.5625 173.40625 192.996094 173.027344 C 192.429688 172.652344 191.835938 172.332031 191.207031 172.070312 C 190.578125 171.808594 189.929688 171.613281 189.265625 171.480469 C 188.597656 171.347656 187.921875 171.28125 187.242188 171.28125 Z M 187.242188 171.28125 " fill-opacity="1" fill-rule="nonzero"/><path fill="#472b29" d="M 187.242188 173.480469 C 191.742188 173.480469 195.402344 177.148438 195.402344 181.648438 C 195.402344 186.152344 191.742188 189.820312 187.242188 189.820312 C 182.746094 189.820312 179.085938 186.152344 179.085938 181.648438 C 179.085938 177.148438 182.746094 173.480469 187.242188 173.480469 M 187.242188 169.082031 C 180.3125 169.082031 174.691406 174.710938 174.691406 181.648438 C 174.691406 188.589844 180.3125 194.21875 187.242188 194.21875 C 194.175781 194.21875 199.796875 188.589844 199.796875 181.648438 C 199.796875 174.710938 194.175781 169.082031 187.242188 169.082031 Z M 187.242188 169.082031 " fill-opacity="1" fill-rule="nonzero"/><path fill="#6673a7" d="M 173.75 207.726562 L 173.75 206.785156 C 173.75 199.335938 179.804688 193.273438 187.242188 193.273438 C 194.683594 193.273438 200.738281 199.335938 200.738281 206.785156 L 200.738281 207.726562 Z M 173.75 207.726562 " fill-opacity="1" fill-rule="nonzero"/><path fill="#472b29" d="M 187.242188 195.472656 C 193.046875 195.472656 197.84375 199.882812 198.472656 205.527344 L 176.015625 205.527344 C 176.644531 199.878906 181.4375 195.472656 187.242188 195.472656 M 187.242188 191.074219 C 178.582031 191.074219 171.554688 198.109375 171.554688 206.785156 L 171.554688 209.925781 L 202.933594 209.925781 L 202.933594 206.785156 C 202.933594 198.109375 195.90625 191.074219 187.242188 191.074219 Z M 187.242188 191.074219 " fill-opacity="1" fill-rule="nonzero"/></svg>